#!OML:ASF E:\Style4\Style4.ASF
:FULLY-SPECIFIED
:DEGREES
2674
root -2.02886 16.7789 -1.67288 5.06159 2.50079 -2.47264
lowerback 17.0027 3.16215 -1.87749
upperback 13.2582 4.01439 -4.12523
thorax 4.97043 2.10753 -3.83076
lowerneck 3.06562 -1.57906 -4.23479
upperneck -4.07262 -1.56901 16.9052
head -1.52475 -1.10084 5.85546
rclavicle 3.97569e-014 -3.97569e-015
rhumerus 62.8921 10.6926 -37.0525
rradius 82.6506
rwrist -59.2057
rhand 30.1705 0.254472
rfingers 7.12502
rthumb 53.8601 -18.6777
lclavicle 3.97569e-014 -3.97569e-015
lhumerus 32.4501 -27.3441 91.292
lradius 107.461
lwrist 44.5062
lhand -40.4044 36.7272
lfingers 7.12502
lthumb -13.3576 66.279
rfemur -33.5999 -7.75827 31.5468
rtibia 51.6865
rfoot -24.5373 -18.0705
rtoes -2.53656
lfemur -34.8237 2.16676 -7.60648
ltibia 52.7603
lfoot -20.8179 7.99186
ltoes -19.8566
2675
root -2.03752 16.7779 -1.66592 5.04619 3.14467 -2.34716
lowerback 16.7284 3.49065 -2.23038
upperback 13.5482 4.42664 -3.55061
thorax 5.38237 2.26241 -3.04431
lowerneck 3.14587 -2.09486 -4.36049
upperneck -4.64189 -2.22275 16.5814
head -1.63279 -1.44504 5.79343
rclavicle -1.35174e-014 -2.22639e-014
rhumerus 62.8197 10.7442 -36.7446
rradius 82.7813
rwrist -59.6875
rhand 30.042 0.158569
rfingers 7.12502
rthumb 53.7447 -18.8506
lclavicle -1.35174e-014 -2.22639e-014
lhumerus 32.4585 -27.1749 91.322
lradius 107.664
lwrist 44.7654
lhand -40.222 36.7403
lfingers 7.12502
lthumb -13.1818 66.3035
rfemur -33.6354 -8.17082 31.4477
rtibia 51.7631
rfoot -24.6593 -18.2024
rtoes -2.49047
lfemur -34.9385 1.7986 -7.71217
ltibia 52.6266
lfoot -20.6239 7.76105
ltoes -19.8514
2676
root -2.0461 16.782 -1.65741 4.99098 3.8086 -2.23991
lowerback 16.6641 3.75342 -2.10818
upperback 13.7848 4.80135 -3.2753
thorax 5.68296 2.45082 -2.85028
lowerneck 2.98706 -2.64812 -4.27933
upperneck -4.96143 -2.93782 16.5055
head -1.62238 -1.80764 5.76654
rclavicle -3.10104e-014 5.08889e-014
rhumerus 62.4617 10.7048 -36.9836
rradius 82.8825
rwrist -60.0676
rhand 29.9223 0.0412042
rfingers 7.12502
rthumb 53.6371 -19.0392
lclavicle -3.10104e-014 5.08889e-014
lhumerus 32.6535 -27.1879 90.7899
lradius 107.912
lwrist 45.3934
lhand -39.9848 37.0088
lfingers 7.12502
lthumb -12.9532 66.5867
rfemur -33.6019 -8.62622 31.3625
rtibia 51.8091
rfoot -24.7687 -18.3508
rtoes -2.38488
lfemur -34.9823 1.43835 -7.79923
ltibia 52.4594
lfoot -20.5245 7.47411
ltoes -19.6624
2677
root -2.05191 16.7879 -1.64864 4.95921 4.45517 -2.15884
lowerback 16.6774 3.89631 -1.85651
upperback 13.9184 5.02677 -3.11549
thorax 5.84203 2.58045 -2.84084
lowerneck 2.80257 -3.06797 -4.1707
upperneck -5.07176 -3.49457 16.4496
head -1.56566 -2.08247 5.7338
rclavicle 1.59028e-014 -1.74931e-014
rhumerus 62.2029 10.9285 -37.5009
rradius 82.963
rwrist -60.4478
rhand 30.0821 -0.0869394
rfingers 7.12502
rthumb 53.7808 -19.0721
lclavicle 1.59028e-014 -1.74931e-014
lhumerus 32.8116 -26.9913 89.9786
lradius 107.955
lwrist 45.9981
lhand -39.6347 36.7136
lfingers 7.12502
lthumb -12.6156 66.3126
rfemur -33.576 -9.0459 31.2984
rtibia 51.8346
rfoot -24.915 -18.4589
rtoes -2.331
lfemur -35.0334 1.14092 -7.87452
ltibia 52.285
lfoot -20.3626 7.17926
ltoes -19.6118
2678
root -2.05493 16.7916 -1.64326 4.96341 5.05095 -2.12743
lowerback 16.7805 3.97605 -1.62604
upperback 13.9382 5.15463 -2.91778
thorax 5.81431 2.65583 -2.77814
lowerneck 2.77762 -3.38539 -4.1865
upperneck -5.14775 -3.92682 16.2951
head -1.53994 -2.29583 5.69213
rclavicle 1.07344e-014 -1.70955e-014
rhumerus 62.0959 11.428 -37.9667
rradius 83.0104
rwrist -60.7862
rhand 30.0393 -0.0495578
rfingers 7.12502
rthumb 53.7423 -19.0603
lclavicle 1.07344e-014 -1.70955e-014
lhumerus 32.6193 -26.8596 89.2864
lradius 107.829
lwrist 45.7588
lhand -39.8578 36.3543
lfingers 7.12502
lthumb -12.8307 65.9399
rfemur -33.5972 -9.35782 31.273
rtibia 51.8467
rfoot -24.8616 -18.801
rtoes -3.11705
lfemur -35.1529 0.8754 -7.9099
ltibia 52.1064
lfoot -20.1212 6.96319
ltoes -19.8547
2679
root -2.05574 16.7944 -1.63739 4.99841 5.65513 -2.01832
lowerback 16.8606 4.00734 -1.46725
upperback 13.9706 5.21151 -2.66935
thorax 5.79752 2.68664 -2.61208
lowerneck 2.80099 -3.67748 -4.56769
upperneck -5.25986 -4.33667 16.2128
head -1.52472 -2.49649 5.73595
rclavicle -5.20816e-014 1.23246e-014
rhumerus 62.1035 12.0178 -38.3147
rradius 83.0575
rwrist -61.0317
rhand 29.8079 0.0330899
rfingers 7.12502
rthumb 53.5342 -19.1151
lclavicle -5.20816e-014 1.23246e-014
lhumerus 32.4074 -26.826 88.6114
lradius 107.731
lwrist 44.7475
lhand -40.7862 37.1465
lfingers 7.12502
lthumb -13.7256 66.6738
rfemur -33.6566 -9.69085 31.1669
rtibia 51.8619
rfoot -24.747 -19.2456
rtoes -4.25695
lfemur -35.3069 0.555029 -8.03887
ltibia 51.9176
lfoot -19.8858 6.81817
ltoes -20.1529
2680
root -2.05481 16.8024 -1.62592 4.97323 6.31168 -1.7987
lowerback 16.6995 4.03172 -1.69243
upperback 13.8742 5.21741 -2.29121
thorax 5.70764 2.6518 -2.07824
lowerneck 3.88873 -3.84606 -4.95107
upperneck -5.64989 -4.56059 15.9874
head -1.79447 -2.65329 5.76864
rclavicle 0 -3.45885e-014
rhumerus 61.9186 13.172 -38.6761
rradius 83.1967
rwrist -61.1881
rhand 29.4284 0.14929
rfingers 7.12502
rthumb 53.1923 -19.2205
lclavicle 0 -3.45885e-014
lhumerus 31.5154 -26.4709 88.2468
lradius 107.516
lwrist 44.2867
lhand -41.2836 35.4525
lfingers 7.12502
lthumb -14.2049 64.9468
rfemur -33.5896 -10.1584 30.9269
rtibia 51.8677
rfoot -24.8334 -19.4397
rtoes -4.24151
lfemur -35.3198 0.149775 -8.29504
ltibia 51.6932
lfoot -19.7302 6.68425
ltoes -20.2858
2681
root -2.05253 16.8143 -1.61192 4.93882 6.9816 -1.68263
lowerback 16.6137 4.08216 -1.57693
upperback 13.8718 5.30063 -2.02783
thorax 5.73213 2.69132 -1.86547
lowerneck 4.41302 -4.14472 -5.06163
upperneck -5.89579 -4.9609 15.8206
head -1.91274 -2.87509 5.75949
rclavicle -2.3059e-014 5.76476e-014
rhumerus 61.4759 13.9422 -39.3428
rradius 83.3461
rwrist -61.3255
rhand 29.1393 0.276504
rfingers 7.12502
rthumb 52.9315 -19.2591
lclavicle -2.3059e-014 5.76476e-014
lhumerus 30.6994 -26.0885 87.6967
lradius 108.034
lwrist 44.5875
lhand -40.9999 36.4701
lfingers 7.12502
lthumb -13.9315 65.9834
rfemur -33.4762 -10.6704 30.7898
rtibia 51.8477
rfoot -24.9401 -19.5327
rtoes -4.21231
lfemur -35.2954 -0.240017 -8.43417
ltibia 51.4512
lfoot -19.5326 6.47951
ltoes -20.3829
2682
root -2.04905 16.8246 -1.60313 4.93444 7.59629 -1.53839
lowerback 16.6492 4.2257 -1.25656
upperback 13.9106 5.52854 -1.88958
thorax 5.77859 2.82818 -1.92136
lowerneck 4.54296 -4.58872 -4.9308
upperneck -6.06494 -5.5446 15.7024
head -1.92811 -3.17626 5.71437
rclavicle -4.05521e-014 7.21588e-014
rhumerus 60.708 14.3091 -40.1815
rradius 83.4987
rwrist -61.4243
rhand 28.9383 0.492307
rfingers 7.12502
rthumb 52.7499 -19.1571
lclavicle -4.05521e-014 7.21588e-014
lhumerus 30.326 -26.0708 86.8711
lradius 108.46
lwrist 44.9092
lhand -40.7046 37.6589
lfingers 7.12502
lthumb -13.647 67.1915
rfemur -33.4159 -11.0697 30.6071
rtibia 51.8174
rfoot -25.1086 -19.5524
rtoes -3.69897
lfemur -35.3025 -0.610586 -8.61236
ltibia 51.2085
lfoot -19.3099 6.29652
ltoes -20.4903
2683
root -2.04393 16.8303 -1.59733 4.88937 8.13895 -1.45914
lowerback 16.7914 4.40683 -0.851676
upperback 13.9545 5.81107 -1.75111
thorax 5.78833 2.99962 -2.03743
lowerneck 4.55358 -5.05958 -4.77014
upperneck -6.19226 -6.16283 15.6364
head -1.90824 -3.49086 5.6757
rclavicle -1.19271e-015 -1.10325e-014
rhumerus 60.0818 14.5437 -40.8731
rradius 83.6093
rwrist -61.7211
rhand 28.4851 0.649242
rfingers 7.12502
rthumb 52.34 -19.2523
lclavicle -1.19271e-015 -1.10325e-014
lhumerus 30.5095 -26.2495 85.7167
lradius 108.41
lwrist 45.0723
lhand -40.6597 38.0465
lfingers 7.12502
lthumb -13.6036 67.582
rfemur -33.3327 -11.3463 30.4878
rtibia 51.7755
rfoot -25.0595 -19.871
rtoes -4.11543
lfemur -35.2886 -0.899484 -8.71724
ltibia 50.9852
lfoot -19.1564 6.02354
ltoes -20.2446
2684
root -2.03575 16.8369 -1.58919 4.85788 8.69038 -1.37234
lowerback 16.8924 4.54103 -0.485643
upperback 14.0039 6.02949 -1.58614
thorax 5.81856 3.13408 -2.09339
lowerneck 4.5519 -5.47758 -4.71515
upperneck -6.31762 -6.71705 15.5756
head -1.88975 -3.77094 5.6545
rclavicle 6.09275e-014 -3.37934e-014
rhumerus 59.8362 14.8551 -41.5669
rradius 83.5832
rwrist -61.9496
rhand 27.9271 0.59875
rfingers 7.12502
rthumb 51.834 -19.605
lclavicle 6.09275e-014 -3.37934e-014
lhumerus 30.769 -26.3304 84.4902
lradius 108.27
lwrist 45.4129
lhand -40.846 38.0954
lfingers 7.12502
lthumb -13.7832 67.6188
rfemur -33.2517 -11.6761 30.3494
rtibia 51.7485
rfoot -25.05 -20.1288
rtoes -4.41551
lfemur -35.2692 -1.13889 -8.85655
ltibia 50.7571
lfoot -18.9792 5.74457
ltoes -20.2597
2685
root -2.02681 16.8476 -1.58094 4.86441 9.26639 -1.17683
lowerback 16.9736 4.65731 -0.246769
upperback 14.0423 6.21099 -1.42717
thorax 5.83375 3.24008 -2.08073
lowerneck 4.62674 -5.86992 -4.69826
upperneck -6.51201 -7.23374 15.4901
head -1.90847 -4.03605 5.63615
rclavicle 2.21893e-014 -1.77167e-014
rhumerus 59.4848 15.2267 -42.3268
rradius 83.6376
rwrist -62.058
rhand 27.5366 0.609757
rfingers 7.12502
rthumb 51.4792 -19.8002
lclavicle 2.21893e-014 -1.77167e-014
lhumerus 30.8645 -26.3623 83.3539
lradius 108.097
lwrist 45.524
lhand -41.2555 38.4042
lfingers 7.12502
lthumb -14.1779 67.9004
rfemur -33.1833 -12.0658 30.0927
rtibia 51.7175
rfoot -25.1379 -20.1892
rtoes -4.30229
lfemur -35.2718 -1.42138 -9.12499
ltibia 50.529
lfoot -18.7484 5.55397
ltoes -20.8765
2686
root -2.01722 16.8597 -1.57323 4.90179 9.84529 -0.898961
lowerback 17.0611 4.77454 -0.126755
upperback 14.0537 6.37956 -1.27985
thorax 5.8031 3.33026 -2.01615
lowerneck 4.76958 -6.24627 -4.5796
upperneck -6.71148 -7.72642 15.3009
head -1.95222 -4.29055 5.5724
rclavicle 4.60187e-014 -6.55989e-015
rhumerus 58.9807 15.67 -43.1049
rradius 83.6915
rwrist -62.1525
rhand 27.3759 0.86387
rfingers 7.12502
rthumb 51.3331 -19.6297
lclavicle 4.60187e-014 -6.55989e-015
lhumerus 30.8704 -26.323 82.2545
lradius 107.978
lwrist 45.5045
lhand -41.1213 38.9588
lfingers 7.12502
lthumb -14.0486 68.464
rfemur -33.1383 -12.4852 29.7538
rtibia 51.6923
rfoot -25.2283 -20.2588
rtoes -4.34398
lfemur -35.2827 -1.76666 -9.47531
ltibia 50.2955
lfoot -18.6235 5.34976
ltoes -20.9957
